<svg width="300" height="auto" viewBox="0 0 300 300" fill="none" xmlns="http://www.w3.org/2000/svg">
<rect width="300" height="300" fill="url(#paint0_linear)"/>
<path d="M241.901 121.822C240.836 116.06 246.586 111.152 243.818 105.389C241.049 99.6271 227.42 99.8405 227.207 93.2246C226.994 85.5416 238.068 89.3831 242.753 89.5965C242.753 77.2184 237.855 66.5475 224.652 75.0842C222.522 75.0842 219.328 74.6574 218.263 72.7366C214.217 65.4804 226.355 63.7731 226.781 58.0109C226.994 54.5962 222.735 52.462 221.457 49.6876C220.606 47.7669 221.457 45.4193 221.457 43.4985C221.457 42.6449 220.393 42.6449 219.754 42.4314C217.198 41.7912 214.856 43.2851 212.3 42.6449C209.532 42.0046 207.828 39.4436 205.273 38.1631C205.273 39.2302 203.356 40.5107 202.93 41.3644C201.014 43.9254 194.412 53.1023 190.153 49.2608C188.45 47.7669 188.876 44.9924 189.088 42.8583C191.431 26.852 185.681 25.1447 171.626 23.0105C168.219 22.3703 159.488 20.4495 155.655 21.5166C155.655 24.291 159.062 43.2851 152.886 42.4314C145.646 42.4314 149.479 23.4374 139.044 21.0898C137.341 21.73 134.998 21.9434 133.933 23.6508C132.443 25.7849 135.424 32.6143 136.063 35.1753C136.915 38.3765 136.702 42.8583 135.424 45.6327C123.499 46.0595 124.776 19.5959 106.036 32.4009C106.036 39.4436 122.86 48.4071 117.11 56.3035C116.045 57.584 114.555 58.6511 112.851 58.8645C104.12 59.9316 100.5 40.2973 90.2778 42.218C88.5742 42.4314 87.0835 43.7119 86.4447 45.2059C84.1022 49.901 95.1758 56.5169 96.8794 61.2121C97.7312 63.7731 96.8794 66.1207 96.6664 68.4683C88.1483 68.4683 78.1394 56.3035 70.2601 63.9865C68.9824 65.267 67.7047 66.7609 68.1306 68.6817C68.9824 71.8829 74.7322 71.4561 76.4358 74.4439C79.6301 81.7001 72.8156 86.8221 72.6026 93.0112C72.6026 95.999 74.9451 97.9198 73.8804 101.334C70.6861 112.646 59.6124 99.8405 54.2886 104.749C49.6036 109.231 54.9275 118.408 55.3534 123.743C55.5663 127.158 53.6497 129.719 53.4368 133.134C53.2238 135.908 55.5663 138.256 56.2052 141.03C57.27 144.658 56.2052 148.713 58.3347 151.914C64.2974 161.091 74.3063 136.121 78.7783 146.579C82.3985 155.115 64.0845 154.689 63.6586 161.091C63.2327 167.494 74.3063 173.256 78.5654 177.311C82.1856 180.939 85.1669 185.634 85.8058 190.756C86.2317 195.878 83.8892 201.213 82.6115 205.909C84.5281 205.909 85.8058 206.762 87.9353 206.122C97.3053 203.348 102.629 188.408 101.138 179.231C99.8608 171.548 95.6017 164.933 95.1758 156.823C94.7499 148.926 102.416 135.481 94.9628 129.719C94.5369 129.505 94.3239 129.292 93.898 129.079C93.898 129.932 92.1944 130.146 91.1296 130.146C89.426 130.146 88.1483 129.505 87.0835 128.652C85.3799 127.371 84.5281 125.451 85.8058 123.53C87.5094 120.969 92.6203 121.396 93.2592 117.768C94.5369 109.871 78.1394 108.377 88.1483 98.7734C90.0649 97.0661 92.6203 95.5722 95.3887 95.7856C100.074 96.2124 111.147 99.4137 110.508 105.389C110.295 108.164 107.953 110.511 109.018 113.499C110.083 116.7 114.555 116.274 115.832 119.261C117.536 123.316 114.129 126.091 114.555 129.932C114.555 130.786 114.98 131.213 115.832 131.853C117.323 132.92 119.878 133.347 120.73 135.054C122.86 139.749 117.323 145.298 124.563 147.859C124.563 144.658 123.925 140.176 126.693 138.469C126.693 139.323 128.184 140.39 128.822 141.03C131.165 144.658 132.23 148.073 136.915 149.353C137.128 142.31 133.082 136.548 133.082 136.335C136.489 136.335 138.618 140.817 142.452 139.749C146.072 138.896 142.877 134.841 142.026 133.134C139.683 128.438 143.09 124.597 141.6 120.115C140.109 115.42 127.758 112.219 123.925 108.591C122.647 107.31 121.369 105.389 122.008 103.469C124.35 96.2124 132.869 100.481 138.831 98.7734C141.6 97.9198 143.729 95.999 145.646 93.8649C148.414 90.877 150.331 85.755 148.627 81.7001C147.562 79.1391 145.859 77.4318 146.285 74.2305C147.988 61.2121 169.071 61.8524 178.228 66.5475C182.913 68.8951 187.385 74.4439 184.829 80.2062C182.7 85.1148 176.737 82.3404 172.478 84.0477C168.858 85.755 163.96 93.2246 162.682 96.6393C160.766 101.975 166.089 106.03 166.302 111.152C166.941 122.463 161.83 132.707 159.488 142.951C159.062 144.871 160.766 147.432 159.701 149.14C157.997 151.914 154.803 150.847 152.034 151.914C149.905 152.768 149.053 154.262 147.137 155.542C143.303 157.89 138.618 159.17 138.192 164.506C140.748 164.506 142.452 163.225 145.22 163.012C145.646 163.012 145.646 163.225 145.859 163.439C145.22 168.561 141.6 172.616 143.729 177.524C147.137 177.524 147.775 169.841 153.312 171.762C153.951 171.762 153.951 171.762 153.951 172.402C155.016 176.03 155.442 179.018 157.571 182.219C157.997 182.219 159.914 181.792 159.701 180.299C159.488 176.884 159.062 171.975 160.127 169.201C161.83 164.933 164.599 165.573 163.96 159.811C164.812 159.811 165.876 158.317 166.728 158.103C173.543 155.756 174.608 151.914 183.126 152.128C185.255 152.128 187.385 152.341 189.088 153.195C190.579 153.195 189.94 150.847 189.514 149.14C186.533 139.109 182.7 129.292 182.7 117.768C183.339 117.768 183.765 117.768 184.403 117.768C184.403 119.048 189.514 125.877 190.366 127.585C191.644 129.719 195.69 139.109 199.31 136.975C201.014 135.908 202.079 124.17 202.93 121.396C206.551 111.578 216.773 109.444 222.735 118.835C228.485 127.798 224.865 146.579 217.624 153.621C214.856 156.182 210.81 156.396 208.041 158.743C205.273 161.305 207.828 166.213 207.19 169.628C206.764 172.829 204.634 175.817 202.292 178.164C196.968 183.286 190.153 185.634 184.829 190.329C182.487 192.25 182.061 195.665 179.293 196.945C176.524 198.226 173.117 196.518 170.349 197.372C168.219 198.652 166.302 199.933 164.173 201.213C160.34 203.134 154.164 206.549 152.034 207.189C152.034 215.299 171.626 211.031 175.672 208.896C178.441 207.402 179.293 203.561 182.274 202.28C185.255 201 187.811 203.988 191.218 202.921C194.199 201.854 196.968 199.506 199.736 197.585C204.847 194.171 210.384 191.183 215.069 187.128C216.772 185.634 219.328 183.713 219.967 181.792C221.245 178.378 215.708 169.841 225.504 171.122C232.957 172.189 240.41 157.036 241.901 151.701C242.753 147.646 243.605 143.378 244.457 139.323C245.521 136.762 246.586 134.414 247.651 131.853C248.29 126.091 242.753 126.304 241.901 121.822ZM72.8021 138.063C66.8394 139.343 62.5803 132.514 65.3487 127.605C66.4135 125.471 68.3301 124.617 70.2467 123.55C72.5892 123.764 74.7187 123.977 76.4223 125.471C81.3203 129.313 78.7648 136.782 72.8021 138.063ZM112.816 93.6343C112.177 93.8478 111.325 93.4209 110.686 93.2075C103.02 90.0063 106.214 85.0977 109.196 79.5488C114.945 81.8964 116.223 91.927 112.816 93.6343ZM123.183 116.007C130.211 119.422 132.766 125.398 132.34 128.385C132.34 129.452 131.701 130.093 131.701 130.093C131.701 130.093 129.998 130.733 127.868 129.879C122.331 127.959 123.183 121.769 123.183 116.007ZM179.627 141.272C179.414 143.62 178.35 144.687 176.859 146.607C174.091 146.607 171.535 145.327 170.683 142.766C169.831 140.632 170.683 137.857 170.896 135.51C171.535 127.613 172.174 118.65 174.729 111.607C177.285 117.369 176.433 124.199 177.711 130.815C178.35 134.229 180.053 137.43 179.627 141.272ZM217.925 106.594C214.304 106.594 210.897 107.021 207.277 106.381C193.861 103.82 205.36 88.6675 208.342 82.6918C213.666 87.6004 219.841 98.698 217.925 106.594Z" fill="white"/>
<path d="M35.792 261.192C37.448 263.136 40.04 264.432 43.748 264.432C48.356 264.432 52.244 262.02 52.244 257.772C52.244 254.82 50.336 252.948 47.708 252.192V252.048C50.156 251.004 51.524 249.348 51.524 246.972C51.524 242.976 48.356 240.708 43.64 240.708C40.832 240.708 38.528 241.824 36.44 243.624L39.104 246.864C40.544 245.604 41.768 244.848 43.388 244.848C45.188 244.848 46.196 245.784 46.196 247.368C46.196 249.204 44.9 250.428 40.796 250.428V254.172C45.764 254.172 46.952 255.432 46.952 257.448C46.952 259.176 45.476 260.148 43.244 260.148C41.3 260.148 39.608 259.176 38.24 257.844L35.792 261.192ZM64.0275 260.472C62.4435 260.472 60.9315 259.32 60.4635 255.72C61.5075 254.064 62.7675 253.452 63.9195 253.452C65.6475 253.452 66.9075 254.352 66.9075 256.764C66.9075 259.356 65.6115 260.472 64.0275 260.472ZM71.4075 243.444C69.9675 241.968 67.7715 240.708 64.7475 240.708C59.9235 240.708 55.4955 244.56 55.4955 253.092C55.4955 261.12 59.7075 264.432 64.1355 264.432C68.2755 264.432 71.7315 261.516 71.7315 256.764C71.7315 251.94 68.8515 249.708 64.9275 249.708C63.5235 249.708 61.5435 250.608 60.3555 252.12C60.5355 246.792 62.5515 244.992 65.0715 244.992C66.4035 244.992 67.8435 245.748 68.6355 246.612L71.4075 243.444ZM82.5431 264.432C87.4391 264.432 90.7151 260.256 90.7151 252.48C90.7151 244.704 87.4391 240.708 82.5431 240.708C77.6471 240.708 74.3711 244.704 74.3711 252.48C74.3711 260.256 77.6471 264.432 82.5431 264.432ZM82.5431 260.328C80.7791 260.328 79.3751 258.708 79.3751 252.48C79.3751 246.216 80.7791 244.812 82.5431 244.812C84.3431 244.812 85.7111 246.216 85.7111 252.48C85.7111 258.708 84.3431 260.328 82.5431 260.328ZM102.283 264H107.611V254.892H115.711V250.428H107.611V244.992H117.115V240.528H102.283V264ZM119.054 255.072C119.054 260.976 122.978 264.432 128.09 264.432C130.214 264.432 132.59 263.676 134.426 262.416L132.662 259.212C131.366 260.004 130.142 260.4 128.81 260.4C126.434 260.4 124.634 259.212 124.166 256.512H134.858C134.966 256.08 135.074 255.216 135.074 254.28C135.074 249.42 132.554 245.712 127.478 245.712C123.194 245.712 119.054 249.276 119.054 255.072ZM124.13 253.236C124.49 250.86 125.93 249.744 127.586 249.744C129.71 249.744 130.574 251.184 130.574 253.236H124.13ZM137.687 255.072C137.687 260.976 141.611 264.432 146.723 264.432C148.847 264.432 151.223 263.676 153.059 262.416L151.295 259.212C149.999 260.004 148.775 260.4 147.443 260.4C145.067 260.4 143.267 259.212 142.799 256.512H153.491C153.599 256.08 153.707 255.216 153.707 254.28C153.707 249.42 151.187 245.712 146.111 245.712C141.827 245.712 137.687 249.276 137.687 255.072ZM142.763 253.236C143.123 250.86 144.563 249.744 146.219 249.744C148.343 249.744 149.207 251.184 149.207 253.236H142.763ZM156.427 255.072C156.427 260.904 159.307 264.432 163.735 264.432C165.463 264.432 167.227 263.496 168.487 262.236H168.631L168.991 264H173.311V238.764H168.019V244.848L168.235 247.584C167.011 246.432 165.823 245.712 163.843 245.712C160.063 245.712 156.427 249.24 156.427 255.072ZM161.863 255C161.863 251.616 163.375 250.032 165.067 250.032C166.039 250.032 167.083 250.32 168.019 251.184V258.492C167.155 259.68 166.255 260.112 165.103 260.112C163.051 260.112 161.863 258.528 161.863 255ZM178 264H182.14L182.572 262.128H182.716C184.12 263.64 185.776 264.432 187.36 264.432C191.212 264.432 194.884 260.904 194.884 254.748C194.884 249.276 192.184 245.712 187.864 245.712C186.208 245.712 184.516 246.468 183.148 247.692L183.292 244.956V238.764H178V264ZM183.292 258.96V251.652C184.3 250.536 185.272 250.032 186.352 250.032C188.476 250.032 189.448 251.652 189.448 254.856C189.448 258.528 187.972 260.112 186.136 260.112C185.236 260.112 184.228 259.824 183.292 258.96ZM197.602 259.032C197.602 262.056 199.654 264.432 202.894 264.432C204.91 264.432 206.602 263.496 208.114 262.164H208.222L208.618 264H212.938V253.776C212.938 248.304 210.418 245.712 205.846 245.712C203.038 245.712 200.482 246.684 198.214 248.052L200.086 251.544C201.814 250.536 203.326 249.924 204.838 249.924C206.746 249.924 207.538 250.932 207.646 252.516C200.59 253.236 197.602 255.288 197.602 259.032ZM202.642 258.636C202.642 257.268 203.866 256.188 207.646 255.684V258.816C206.71 259.752 205.918 260.328 204.694 260.328C203.434 260.328 202.642 259.788 202.642 258.636ZM216.437 255.072C216.437 261.012 220.289 264.432 225.257 264.432C227.201 264.432 229.469 263.712 231.197 262.2L229.073 258.852C228.209 259.536 227.165 260.148 225.869 260.148C223.565 260.148 221.873 258.168 221.873 255.072C221.873 251.976 223.493 249.996 226.049 249.996C226.877 249.996 227.669 250.32 228.533 251.04L230.945 247.764C229.757 246.54 227.921 245.712 225.725 245.712C220.793 245.712 216.437 249.132 216.437 255.072ZM234.285 264H239.433V259.608L241.701 257.052L245.733 264H251.457L244.725 253.488L250.989 246.144H245.229L239.577 253.236H239.433V238.764H234.285V264Z" fill="white"/>
<defs>
<linearGradient id="paint0_linear" x1="300" y1="0" x2="0" y2="300" gradientUnits="userSpaceOnUse">
<stop stop-color="#0E1118"/>
<stop offset="1" stop-color="#262E3F"/>
</linearGradient>
</defs>
</svg>
