<svg width="auto" height="auto" viewBox="0 0 335 278" fill="none" xmlns="http://www.w3.org/2000/svg">
<path d="M94.5282 101.982C97.2956 97.0805 104.36 97.0805 107.127 101.982L129.193 140.39C131.961 145.292 128.465 151.364 122.858 151.364H78.725C73.1174 151.364 69.6216 145.292 72.389 140.39L94.5282 101.982Z" fill="#2A2A2A"/>
<path d="M226.052 101.982C228.82 97.0805 235.884 97.0805 238.651 101.982L260.717 140.39C263.485 145.292 259.989 151.364 254.381 151.364H210.249C204.641 151.364 201.146 145.292 203.913 140.39L226.052 101.982Z" fill="#2A2A2A"/>
<path d="M217.605 49.5278H199.762C196.922 49.5278 194.227 51.0642 192.771 53.4784L173.763 84.9363C170.923 89.6184 164.15 89.6184 161.31 84.9363L142.448 53.8441C140.846 51.1373 137.933 49.5278 134.801 49.5278H117.396C111.716 49.5278 108.22 55.7464 111.206 60.648L161.31 143.463C164.15 148.145 170.923 148.145 173.763 143.463L223.868 60.648C226.781 55.8195 223.285 49.5278 217.605 49.5278Z" fill="#2A2A2A"/>
<path d="M108.657 195.404L93.8001 232.496C92.9991 234.544 90.9599 235.934 88.7751 235.934H75.6664C73.4816 235.934 71.4426 234.544 70.6415 232.496L55.7849 195.404C54.3284 191.82 56.9502 187.869 60.8099 187.869H69.2578C71.5154 187.869 73.5545 189.259 74.3556 191.381L77.7055 200.379C79.4534 205.061 86.0078 205.135 87.8285 200.526L91.5425 191.234C92.3436 189.186 94.3828 187.796 96.5676 187.796H103.559C107.491 187.942 110.113 191.82 108.657 195.404Z" fill="#2A2A2A"/>
<path d="M120.163 187.942H129.048C132.034 187.942 134.51 190.357 134.51 193.429V230.52C134.51 233.52 132.107 236.007 129.048 236.007H120.163C117.177 236.007 114.701 233.593 114.701 230.52V193.429C114.774 190.357 117.177 187.942 120.163 187.942Z" fill="#2A2A2A"/>
<path d="M225.543 208.573V230.52C225.543 233.52 223.139 236.007 220.081 236.007H211.196C208.21 236.007 205.734 233.593 205.734 230.52V212.011C205.734 206.012 203.549 203.744 200.418 203.744C196.922 203.744 194.227 206.085 194.227 212.523V230.52C194.227 233.52 191.824 236.007 188.765 236.007H179.881C176.895 236.007 174.419 233.593 174.419 230.52V212.011C174.419 206.012 172.38 203.744 169.102 203.744C165.607 203.744 162.912 206.085 162.912 212.523V230.52C162.912 233.52 160.509 236.007 157.45 236.007H148.565C145.58 236.007 143.104 233.593 143.104 230.52V193.429C143.104 190.43 145.507 187.942 148.565 187.942H161.893V192.405C165.461 188.82 170.195 187.064 175.438 187.064C179.881 187.064 183.959 188.235 187.163 190.795C189.202 192.405 191.897 192.478 193.936 191.015C197.359 188.454 201.583 187.137 206.389 187.137C217.313 187.064 225.543 193.429 225.543 208.573Z" fill="#2A2A2A"/>
<path d="M281.4 210.109V230.447C281.4 233.447 278.997 235.934 275.938 235.934H263.048V229.642C260.791 234.471 256.203 236.812 249.503 236.812C237.778 236.812 231.733 230.154 231.733 221.888C231.733 212.596 238.724 207.402 253.581 207.402H261.519C260.936 203.744 258.096 201.769 252.488 201.769C249.939 201.769 247.172 202.281 244.696 203.159C242.074 204.11 239.161 203.159 237.923 200.672L236.321 197.379C234.937 194.526 236.248 191.015 239.161 189.917C244.113 188.015 250.085 186.991 255.401 186.991C271.933 187.064 281.4 194.161 281.4 210.109ZM261.664 220.278V216.913H256.785C252.561 216.913 250.741 218.303 250.741 220.936C250.741 223.131 252.488 224.814 255.474 224.814C258.169 224.887 260.572 223.497 261.664 220.278Z" fill="#2A2A2A"/>
</svg>
