<svg width="350" height="188" viewBox="0 0 350 188" fill="none" xmlns="http://www.w3.org/2000/svg">
<path d="M43.2547 96.7225C48.3269 87.748 61.2742 87.748 66.3464 96.7225L106.79 167.045C111.862 176.02 105.456 187.137 95.1778 187.137H14.29C4.01214 187.137 -2.39496 176.02 2.67721 167.045L43.2547 96.7225Z" fill="#E17C69"/>
<path d="M284.316 96.7225C289.389 87.748 302.336 87.748 307.408 96.7225L347.852 167.045C352.924 176.02 346.517 187.137 336.24 187.137H255.352C245.074 187.137 238.667 176.02 243.739 167.045L284.316 96.7225Z" fill="#E17C69"/>
<path d="M268.833 0.682236H236.131C230.926 0.682236 225.987 3.49525 223.317 7.91551L188.48 65.5128C183.274 74.0854 170.861 74.0854 165.655 65.5128L131.084 8.58509C128.148 3.62903 122.808 0.682236 117.069 0.682236H85.1676C74.7563 0.682236 68.3493 12.068 73.8219 21.0425L165.655 172.671C170.861 181.243 183.274 181.243 188.48 172.671L280.313 21.0425C285.652 12.202 279.245 0.682236 268.833 0.682236Z" fill="#E17C69"/>
</svg>
