<svg width="12px" height="12px" viewBox="0 0 61 14" fill="none" xmlns="http://www.w3.org/2000/svg">
<path d="M14.3548 2.25664L10.3521 12.2052C10.1363 12.7547 9.58687 13.1275 8.99825 13.1275H5.46646C4.87783 13.1275 4.32847 12.7547 4.11264 12.2052L0.109935 2.25664C-0.282485 1.29513 0.423876 0.235523 1.46379 0.235523H3.73983C4.34808 0.235523 4.89746 0.608372 5.1133 1.17742L6.01585 3.59095C6.48675 4.84679 8.25267 4.86645 8.74319 3.63023L9.74385 1.13814C9.95968 0.588711 10.5091 0.215881 11.0977 0.215881H12.9813C14.0408 0.255126 14.7472 1.29513 14.3548 2.25664Z" fill="#2A2A2A"/>
<path d="M17.4549 0.255127H19.8487C20.6531 0.255127 21.3203 0.902671 21.3203 1.72682V11.6755C21.3203 12.48 20.6728 13.1472 19.8487 13.1472H17.4549C16.6505 13.1472 15.9833 12.4996 15.9833 11.6755V1.72682C16.003 0.902671 16.6505 0.255127 17.4549 0.255127Z" fill="#2A2A2A"/>
<path d="M45.8465 5.78869V11.6755C45.8465 12.48 45.199 13.1472 44.3749 13.1472H41.9812C41.1767 13.1472 40.5096 12.4996 40.5096 11.6755V6.7109C40.5096 5.10185 39.921 4.4936 39.0773 4.4936C38.1355 4.4936 37.4095 5.12148 37.4095 6.84827V11.6755C37.4095 12.48 36.762 13.1472 35.9379 13.1472H33.5442C32.7397 13.1472 32.0726 12.4996 32.0726 11.6755V6.7109C32.0726 5.10185 31.5232 4.4936 30.6402 4.4936C29.6984 4.4936 28.9725 5.12148 28.9725 6.84827V11.6755C28.9725 12.48 28.325 13.1472 27.5009 13.1472H25.1071C24.3027 13.1472 23.6356 12.4996 23.6356 11.6755V1.72681C23.6356 0.922282 24.2831 0.255115 25.1071 0.255115H28.6978V1.45206C29.6592 0.490557 30.9346 0.0196533 32.3473 0.0196533C33.5442 0.0196533 34.6429 0.333574 35.5063 1.02036C36.0556 1.45206 36.7816 1.47168 37.331 1.07923C38.2532 0.392439 39.3912 0.0392352 40.6862 0.0392352C43.6293 0.0196126 45.8465 1.72682 45.8465 5.78869Z" fill="#2A2A2A"/>
<path d="M60.8959 6.20074V11.6558C60.8959 12.4603 60.2484 13.1275 59.4243 13.1275H55.9514V11.4399C55.3431 12.735 54.107 13.363 52.3019 13.363C49.1429 13.363 47.5143 11.5773 47.5143 9.35995C47.5143 6.86788 49.398 5.47472 53.4007 5.47472H55.5393C55.3824 4.49359 54.6171 3.96374 53.1063 3.96374C52.4196 3.96374 51.674 4.1011 51.0069 4.33657C50.3005 4.59167 49.5157 4.33658 49.1821 3.66941L48.7505 2.78637C48.3777 2.02109 48.7309 1.07923 49.5157 0.784891C50.8499 0.274704 52.4588 0 53.8912 0C58.3452 0.0196226 60.8959 1.92302 60.8959 6.20074ZM55.5786 8.92825V8.02563H54.264C53.126 8.02563 52.6354 8.39844 52.6354 9.10485C52.6354 9.69353 53.1063 10.1448 53.9108 10.1448C54.6368 10.1645 55.2843 9.79165 55.5786 8.92825Z" fill="#2A2A2A"/>
</svg>
